<?xml version="1.0" standalone="no"?>
<!DOCTYPE svg PUBLIC "-//W3C//DTD SVG 20010904//EN"
 "http://www.w3.org/TR/2001/REC-SVG-20010904/DTD/svg10.dtd">
<svg version="1.0" xmlns="http://www.w3.org/2000/svg"
 width="282.000000pt" height="282.000000pt" viewBox="0 0 282.000000 282.000000"
 preserveAspectRatio="xMidYMid meet">
<metadata>
Created by potrace 1.11, written by Peter Selinger 2001-2013
</metadata>
<g transform="translate(0.000000,282.000000) scale(0.100000,-0.100000)"
fill="#000000" stroke="none">
<path d="M12 2018 l3 -42 45 -2 c25 -1 60 -2 78 -3 18 -1 41 -10 53 -22 20
-20 20 -26 17 -492 -3 -459 -4 -473 -25 -519 -24 -53 -63 -79 -133 -87 -45 -6
-45 -6 -48 -48 l-3 -43 255 0 256 0 0 43 c0 43 -1 44 -35 45 -42 2 -103 26
-122 50 -18 22 -31 55 -39 95 -9 43 -11 939 -3 929 4 -4 16 -34 27 -67 12 -33
96 -267 188 -520 91 -253 175 -486 186 -517 19 -57 21 -58 57 -58 l38 0 45
138 c139 417 343 1012 348 1012 3 0 6 -232 5 -516 0 -499 -1 -516 -19 -530
-19 -14 -34 -16 -126 -18 l-45 -1 -3 -42 -3 -43 295 0 296 0 0 43 0 42 -66 2
c-88 2 -111 9 -119 34 -9 28 -10 1028 -1 1056 8 25 61 40 139 38 l47 -1 0 43
0 43 -226 -2 -227 -3 -78 -230 c-43 -126 -106 -311 -141 -410 -34 -99 -72
-209 -84 -245 l-22 -65 -12 30 c-16 39 -112 308 -285 793 l-47 132 -235 0
-234 0 3 -42z"/>
<path d="M1711 1978 c-3 -83 -4 -112 -16 -310 l-6 -108 38 0 38 0 22 100 c12
55 33 126 48 157 47 103 134 159 244 156 80 -2 76 31 76 -541 1 -279 -3 -522
-7 -539 -10 -38 -26 -44 -121 -47 -35 -1 -67 -5 -73 -8 -5 -4 -9 -22 -9 -40
l1 -33 307 -3 c169 -1 307 1 308 5 0 5 2 18 3 30 4 39 -9 47 -81 49 -92 2
-111 9 -120 45 -6 22 -9 894 -4 1031 3 72 149 68 246 -6 48 -37 90 -128 117
-248 l23 -108 37 0 38 0 -5 83 c-10 194 -18 334 -20 362 -2 17 -3 36 -4 43 -1
9 -116 12 -539 12 l-538 0 -3 -82z"/>
</g>
</svg>
