<?xml version="1.0" encoding="utf-8"?>
<!-- Svg Vector Icons : http://www.onlinewebfonts.com/icon -->
<!DOCTYPE svg PUBLIC "-//W3C//DTD SVG 1.1//EN" "http://www.w3.org/Graphics/SVG/1.1/DTD/svg11.dtd">
<svg version="1.1" xmlns="http://www.w3.org/2000/svg" xmlns:xlink="http://www.w3.org/1999/xlink" x="0px" y="0px" viewBox="0 0 1000 1000" enable-background="new 0 0 1000 1000" xml:space="preserve">
<metadata> Svg Vector Icons : http://www.onlinewebfonts.com/icon </metadata>
<g><g transform="translate(0.000000,511.000000) scale(0.100000,-0.100000)"><path d="M4197.8,4450.5l-748.4-618.2h-940.7h-940.7v-779.5l-2.1-781.5l-609.9-504.5l-612-504.5l49.6-45.5c24.8-26.9,434.2-366,905.6-756.7l858-707.1l6.2,1749.1l4.1,1751.2h2780.8h2780.8l4.1-1747l6.2-1749.1l878.7,725.7c483.8,399,891.1,738.1,905.6,752.6c20.7,20.7-88.9,119.9-585.1,531.4l-609.9,504.5v779.5v781.5h-944.9l-946.9,2.1l-591.3,490c-326.7,268.8-661.6,547.9-746.4,616.1l-153,128.2L4197.8,4450.5z"/><path d="M4625.8,2726.2c-798.1-150.9-1374.9-740.2-1573.4-1606.5c-66.2-293.6-62-740.2,10.3-1017.2c215-812.6,860.1-1292.2,1817.3-1350.1l202.6-12.4v173.7v175.7l-225.4,24.8c-581,64.1-994.5,275-1234.3,626.5c-198.5,291.5-266.7,570.6-250.2,1000.7c41.3,1029.6,779.5,1709.8,1798.7,1658.1c277.1-14.5,421.8-49.6,655.4-165.4c233.6-113.7,475.5-349.4,576.8-560.3c204.7-430,155.1-903.5-136.5-1298.4c-132.3-181.9-376.3-347.3-508.6-347.3c-80.6,0-117.9,31-117.9,99.2c0,29,74.4,397,165.4,820.8c91,423.8,165.4,779.5,165.4,789.8c0,16.5-246,80.6-370.1,95.1c-26.9,4.1-37.2-16.5-74.4-179.9l-12.4-60l-107.5,103.4c-196.4,190.2-409.4,256.4-663.7,202.6c-339.1-72.4-618.2-316.3-800.1-705c-113.7-239.8-148.9-407.3-138.5-669.9c22.7-543.8,334.9-901.5,787.7-895.2c167.5,2.1,345.3,78.6,492.1,208.8c95.1,84.8,122,91,122,22.7c0-47.5,93-157.1,165.4-194.3c157.1-80.6,473.5-47.5,709.2,76.5c169.5,88.9,475.5,392.8,589.2,585.1C6716,408.5,6780.1,547,6813.2,638c53.7,155.1,57.9,188.1,57.9,496.2c0,318.4-2.1,337-64.1,512.7c-190.2,529.3-593.4,895.2-1155.7,1050.3C5436.2,2755.1,4867.7,2771.7,4625.8,2726.2z M5093,1518.8c196.4-91,279.1-252.2,279.1-541.7c0-413.5-212.9-796-525.1-940.7C4625.8-67,4425.2-0.9,4307.4,216.2c-159.2,293.6-43.4,858,237.8,1157.8C4708.5,1547.7,4915.2,1601.5,5093,1518.8z"/><path d="M8256.3-435c-887-731.9-1614.7-1339.8-1618.9-1352.2c-6.2-18.6,3215-2691.9,3246-2691.9c8.3,0,16.5,1209.5,16.5,2687.8c0,1478.3-8.3,2687.8-16.5,2687.8C9875.2,896.4,9143.3,296.9,8256.3-435z"/><path d="M100-1793.4c0-1604.4,8.3-2603,18.6-2598.8c41.4,14.5,3144.7,2590.6,3140.5,2605.1C3255-1774.8,1935.9-679,333.6,640.1c-113.7,95.1-215,173.7-221.2,173.7C106.2,813.7,100-358.6,100-1793.4z"/><path d="M5589.2-2639c-539.6-448.7-645.1-529.3-671.9-506.5c-736,612-1248.8,1023.4-1269.4,1019.3c-12.4-4.1-760.8-616.1-1662.3-1360.4L348.1-4840.9l2307.3-6.2c1269.4-2.1,3337-2.1,4596.1,0l2290.8,6.2l-829.1,686.4c-1893.8,1565.1-2301.1,1902.1-2390,1972.4l-93,74.4L5589.2-2639z"/></g></g>
</svg>